<svg xmlns="http://www.w3.org/2000/svg" width="73" height="116"><g fill="#1A1919" fill-rule="evenodd"><path d="m33.185 101.269.745-2.752 4.054-4.636h-2.083l-2.444 2.953-.834-2.953h-1.898l1.526 4.466-.783 2.922zM45.117 93.88h-1.696L42.203 98.4l-2.056-4.486-.015-.032h-1.555l-1.965 7.317-.019.07h1.696l1.25-4.662 2.14 4.63.013.033h1.441l1.964-7.318zM48.265 98.843l-.488-4.962h-1.83l.954 7.392.007.049h1.493l4.95-7.441h-1.935zM22.223 106.83h3.378l.415-1.515h-3.379l.365-1.374h4.518l.414-1.536h-6.223l-1.966 7.318-.018.07h6.274l.415-1.535h-4.579zM40.028 106.922l-2.056-4.485-.014-.033h-1.555l-1.966 7.318-.018.07h1.696l1.25-4.663 2.138 4.63.015.033h1.44l1.966-7.317.018-.071h-1.695zM28.474 93.88l-.769 2.88h-2.794l.77-2.88h-1.718l-.32 1.195-1.645 6.123-.019.07h1.717l.79-2.92h2.794l-.79 2.92h1.716l1.966-7.317.02-.07zM31.193 105.939H29.84l.532-1.978h1.298c.488 0 .832.097 1.02.286a.7.7 0 0 1 .213.543c0 .847-.884 1.149-1.711 1.149m3.496-1.285c0-.607-.2-1.127-.578-1.505-.507-.508-1.253-.744-2.347-.744H29.07l-1.966 7.317-.018.07h1.716l.623-2.328h1.119l1.122 2.329h1.944l-1.245-2.502c1.499-.374 2.323-1.308 2.323-2.637M46.747 108.33c-1.107 0-1.795-.688-1.795-1.795 0-1.262 1.015-2.668 2.47-2.668 1.107 0 1.795.688 1.795 1.795 0 1.262-1.015 2.667-2.47 2.667m.862-6.05c-2.737 0-4.43 2.264-4.43 4.36 0 1.93 1.39 3.278 3.381 3.278 2.737 0 4.432-2.263 4.432-4.359 0-1.93-1.39-3.279-3.383-3.279"/><path d="M57.214 40.467c-.89.154-1.797.318-2.713.494-5.094 5.49-11.269 12.356-17.652 19.953-3.464.12-6.979.295-10.532.524a1254.289 1254.289 0 0 1 15.415-17.94c1.43-1.63 2.631-2.994 3.554-4.038-.014-.001-.027-.004-.042-.007-1.646.107-8.709.83-8.709.83.051-.063 1.131-1.46 1.678-2.163C49.943 23.007 67.947.63 67.947.63 52.367 15.12 18.6 48.222 18.6 48.222l.013-.003c1.772-.314 6.08-.877 7.967-1.137L25 49.252a3093.94 3093.94 0 0 0-14.81 20.556c-1.14 1.599-2.293 3.215-3.446 4.839-2.815 3.966-3.102 4.49-5.834 8.405a236.81 236.81 0 0 1 7.087-1.646l2.033-.39 2.484-3.028c.99-1.154 6.318-7.565 7.698-9.235l.252-.304-3.605-1.49c5.158-.31 10.32-.485 15.441-.544-2.123 2.608-9.067 11.558-10.402 13.36 2.005-.183 4.584-.44 6.367-.571L4.25 115.458 44.5 72.824s-5.386.337-7.317.483a632.638 632.638 0 0 1 12.225-12.618 717.023 717.023 0 0 1 18.485-17.916 676.589 676.589 0 0 1 4.474-4.143l-.12-.025c-3.282.253-8.803.79-15.032 1.862Z"/></g></svg>